PathFileType	4	(X/Y/Z)	s02c0302.trc
DataRate	CameraRate	NumFrames	NumMarkers	Units	OrigDataRate	OrigDataStartFrame	OrigNumFrames
200	200	4	51	mm	200	1500	2000
Frame#	Time	racr			lacr			c7			jug			rlel			rdr			llel			ldr			s2			lic			ric			lasi			rasi			rpsi			lpsi			rgt			lgt			rth1			rth2			rth3			rth4			rlfc			rmfc			rsh1			rsh2			rsh3			rsh4			rlmal			rmmal			rcal			rtoe			rmt5			rmt1			lth1			lth2			lth4			lth3			llfc			lmfc			lsh1			lsh2			lsh3			lsh4			llmal			lmmal			lcal			ltoe			lmt5			SBIKE			LBIKE			RBIKE			
		X1	Y1	Z1	X2	Y2	Z2	X3	Y3	Z3	X4	Y4	Z4	X5	Y5	Z5	X6	Y6	Z6	X7	Y7	Z7	X8	Y8	Z8	X9	Y9	Z9	X10	Y10	Z10	X11	Y11	Z11	X12	Y12	Z12	X13	Y13	Z13	X14	Y14	Z14	X15	Y15	Z15	X16	Y16	Z16	X17	Y17	Z17	X18	Y18	Z18	X19	Y19	Z19	X20	Y20	Z20	X21	Y21	Z21	X22	Y22	Z22	X23	Y23	Z23	X24	Y24	Z24	X25	Y25	Z25	X26	Y26	Z26	X27	Y27	Z27	X28	Y28	Z28	X29	Y29	Z29	X30	Y30	Z30	X31	Y31	Z31	X32	Y32	Z32	X33	Y33	Z33	X34	Y34	Z34	X35	Y35	Z35	X36	Y36	Z36	X37	Y37	Z37	X38	Y38	Z38	X39	Y39	Z39	X40	Y40	Z40	X41	Y41	Z41	X42	Y42	Z42	X43	Y43	Z43	X44	Y44	Z44	X45	Y45	Z45	X46	Y46	Z46	X47	Y47	Z47	X48	Y48	Z48	X49	Y49	Z49	X50	Y50	Z50	X51	Y51	Z51	
1500	7.5000	765.081749	1198.014477	-162.832227	721.066637	1255.904508	-510.745960	750.401753	1266.259888	-339.199195	666.239988	1149.367187	-334.912535	653.571009	1001.612064	-21.240650	738.192540	845.838107	-119.454602	587.389362	1020.822669	-614.963850	721.926856	862.393333	-529.658506	214.615618	1197.180851	-267.245017	326.843497	1203.202778	-425.632915	349.555605	1142.699130	-136.501737	361.720097	1159.622937	-413.344943	387.406129	1105.703239	-172.329843	242.254771	1215.255039	-220.737038	238.408665	1239.238038	-301.889721	297.700794	1058.502576	-110.711927	278.514154	1126.162100	-466.746551	337.610428	974.911189	-109.792326	376.246496	895.169320	-111.769818	373.794878	810.460469	-94.721360	406.791591	900.121935	-133.363472	375.211897	672.831206	-134.301682	364.466458	660.374631	-241.960923	329.445760	576.970508	-115.280217	309.933501	491.242837	-131.792681	254.325021	425.593226	-129.268742	325.625471	486.922642	-168.113068	192.293137	323.294588	-137.012710	210.887301	338.861505	-214.872391	111.432979	338.684815	-180.362988	300.096707	121.022990	-194.028571	216.832734	187.649156	-130.493282	241.056277	181.346986	-239.145503	400.692497	1060.250253	-485.249062	481.943397	1028.225393	-486.601528	501.425979	1053.622440	-468.816998	536.074804	958.756769	-496.639344	616.875756	894.956624	-481.646813	622.061782	860.970583	-370.878325	571.908913	807.706997	-498.500182	531.789836	731.967008	-487.097292	455.693073	683.290276	-491.423887	549.449778	718.323357	-452.299799	366.411322	605.236656	-480.753419	383.900165	595.469192	-404.292305	284.054481	594.352465	-444.534276	515.772869	424.446236	-443.770887	416.030546	463.937937	-507.168679	-128.973418	870.008258	-313.733562	32.602914	82.648715	-515.292017	32.541637	82.624810	-115.244856	
1501	7.5050	765.197558	1199.181927	-165.750839	718.924756	1253.385493	-512.843326	749.394524	1266.025433	-342.495057	665.331681	1148.798520	-336.205916	653.977552	1002.766227	-23.199660	738.306496	845.738170	-119.271455	580.419234	1018.956140	-612.643443	720.733020	863.949042	-530.896430	215.182755	1201.555293	-266.381527	326.610768	1204.207845	-425.254079	349.186243	1146.700453	-135.475159	360.630891	1160.491478	-412.543424	387.044626	1108.959142	-170.452825	242.444730	1219.252148	-220.075130	238.246287	1242.353615	-301.378144	296.426135	1062.586655	-109.243374	277.281853	1127.419067	-464.630607	338.335703	977.803746	-109.194652	378.540715	898.770638	-110.491033	377.543247	814.049341	-93.549139	408.972451	904.338509	-131.953583	380.535127	676.297691	-132.923509	370.023433	663.938571	-240.956464	332.803494	580.743354	-114.535032	310.748987	495.590066	-131.217515	253.179258	431.846737	-128.504026	326.224717	491.026088	-167.585302	187.507404	330.716796	-136.416360	206.944251	346.187121	-214.673107	107.103146	347.701867	-180.538845	291.041444	125.911642	-194.398928	209.193787	194.367929	-130.563793	233.810779	187.840695	-239.042325	398.342699	1059.175391	-484.895662	478.972280	1025.676842	-486.940658	499.120678	1050.820213	-469.486372	531.763763	955.166691	-497.159756	612.675772	890.892063	-482.395365	618.434570	855.473069	-373.695302	567.388956	801.685973	-500.582559	528.850901	725.056126	-488.125240	453.755003	674.628954	-491.617452	546.559015	711.682571	-452.418616	366.150533	595.848687	-480.499665	383.344162	586.259406	-404.257600	283.687663	580.588858	-444.955277	523.510542	422.668241	-443.664946	422.348088	457.035330	-507.738907	-128.939364	870.003800	-313.840958	32.626750	82.591132	-515.300591	32.357936	82.872509	-115.168596	
1502	7.5100	765.308585	1200.409116	-168.335282	716.881902	1251.000006	-515.114007	748.410558	1265.888621	-345.406771	664.622903	1148.206130	-337.404245	654.321711	1003.965823	-24.984544	738.440163	845.595529	-119.485964	573.703615	1016.859030	-609.735863	719.263573	864.402444	-530.471067	213.932444	1203.870374	-265.250595	325.616151	1204.856762	-424.412078	348.920442	1150.564856	-134.600805	359.538926	1161.097496	-411.764663	387.958705	1112.561413	-167.955017	242.611689	1223.072011	-219.484778	237.768371	1245.165424	-300.858855	295.282725	1066.445764	-107.888469	275.948003	1128.226687	-462.701264	339.401994	980.796899	-108.788755	381.222857	902.596030	-109.667739	381.842015	817.823526	-92.697163	411.746306	908.565714	-130.856669	386.164244	680.032771	-131.647790	376.720044	667.681437	-239.483778	336.507742	584.682049	-113.816469	311.863363	500.186263	-130.748953	252.385589	438.274303	-128.066468	327.110089	495.359092	-167.117835	182.750987	338.450205	-135.882829	203.245224	354.017797	-214.442351	102.783007	356.810220	-180.540585	282.718032	131.840606	-194.184445	201.848243	201.613719	-130.570757	226.754599	194.576824	-239.006690	395.896794	1057.603142	-484.636455	475.861654	1022.542725	-487.407688	496.613814	1047.331608	-470.324432	527.119559	950.839227	-497.118042	605.985440	884.409525	-484.745209	612.851190	850.126884	-375.480607	562.283317	794.748313	-502.244572	525.345938	717.306191	-488.989330	451.326140	665.230422	-492.014370	543.321866	704.675499	-453.303657	365.559920	585.658099	-479.910937	382.655910	576.333817	-403.763491	283.508804	566.476328	-444.517359	531.086091	420.568386	-444.447494	427.817174	450.084467	-508.231513	-128.898088	869.997831	-313.846683	32.606037	82.550011	-515.303104	32.530701	82.545189	-115.222605	
1503	7.5150	765.436302	1201.828527	-170.581344	714.706073	1248.531679	-517.065003	747.448312	1265.784840	-348.124217	663.675174	1147.876427	-338.146259	654.360278	1005.132457	-26.733993	738.329302	845.454171	-119.621863	567.575378	1014.742930	-606.614980	717.741009	864.974734	-529.960967	213.473140	1206.530069	-264.361509	324.936988	1205.235737	-423.875278	348.620691	1154.229193	-134.154284	358.454914	1161.434249	-411.011905	387.662322	1115.544091	-167.053350	242.629191	1226.785428	-219.051568	242.423935	1247.086716	-302.341684	294.515799	1069.784539	-107.113361	274.617847	1128.802486	-461.015934	341.227612	983.809204	-108.091369	384.432738	906.300447	-109.302168	387.124635	821.889933	-91.703896	414.917712	913.049361	-130.284553	392.187576	684.040486	-130.537515	383.000366	671.564888	-238.658871	340.732273	588.794785	-113.208606	313.394544	505.031805	-130.185459	252.019560	445.021963	-127.436589	328.282311	499.892167	-166.707733	178.243875	346.549245	-135.095734	199.700184	362.163310	-214.155953	98.742490	366.230748	-180.530326	274.826715	138.488812	-194.111530	194.883258	209.268708	-130.462974	219.892514	201.884531	-239.081922	393.265459	1055.683323	-484.438735	472.420952	1018.940078	-487.984770	493.660177	1043.224777	-471.469869	522.083068	946.111117	-498.085087	597.470261	877.742907	-487.087784	607.997809	842.972047	-377.558701	556.651341	786.984399	-503.558917	521.433208	708.751939	-489.602816	448.621656	655.150223	-492.050005	539.777941	696.961711	-453.887438	364.796163	574.908869	-478.763305	381.808276	565.719620	-402.648970	282.720412	551.509805	-442.734825	537.561539	417.955921	-445.077047	432.687597	442.387340	-508.511743	-128.930480	869.957349	-314.027118	32.600040	82.467055	-515.303318	32.509338	82.546802	-115.222258	
